<svg width="24" height="24" viewBox="0 0 24 24" fill="none" xmlns="http://www.w3.org/2000/svg">
<g clip-path="url(#clip0_3173_77)">
<path d="M4.65083 11.2941L10.0244 14.1677C11.2029 14.798 12.6184 14.798 13.797 14.1677L19.1705 11.2941M4.65083 11.2941L1.94656 9.4784C0.652899 8.6098 0.805468 6.66094 2.21854 6.00424L9.81784 2.4726C11.1457 1.85548 12.6774 1.85148 14.0085 2.46164L21.6987 5.9867C23.1311 6.64331 23.2769 8.62148 21.9562 9.48103L19.1705 11.2941M4.65083 11.2941V17.0072C4.65083 17.5305 4.85393 18.0332 5.25757 18.3661C6.35739 19.2734 8.85217 21 11.9107 21C14.9692 21 17.4639 19.2734 18.5638 18.3661C18.9674 18.0332 19.1705 17.5305 19.1705 17.0072V11.2941" stroke="#AFB2BF" stroke-width="1.5"/>
<path d="M22 10L22 15" stroke="#AFB2BF"/>
<path d="M22.8611 17.0232L22.4928 14.8747C22.3978 14.3207 21.6022 14.3207 21.5072 14.8747L21.1389 17.0232C21.0472 17.5577 21.0653 18.1053 21.1918 18.6326L21.5138 19.9742C21.6365 20.4853 22.3635 20.4853 22.4862 19.9742L22.8082 18.6326C22.9347 18.1053 22.9528 17.5577 22.8611 17.0232Z" fill="#AFB2BF"/>
</g>
<defs>
<clipPath id="clip0_3173_77">
<rect width="24" height="24" fill="white"/>
</clipPath>
</defs>
</svg>
